<svg width="74" height="66" viewBox="0 0 74 66" fill="none" xmlns="http://www.w3.org/2000/svg">
<path d="M41.2919 63.5613L5.11646 42.3499C5.11646 42.3499 7.09022 42.666 8.30724 42.3818C9.66332 42.0651 10.3233 41.5246 11.3922 40.6966C13.3777 39.1586 14.8759 35.5672 14.8759 35.5672C14.8759 35.5672 16.2552 35.0232 17.1465 34.6918C19.1367 33.9517 20.2267 33.4381 22.2981 32.931C23.9816 32.519 24.9487 32.3023 26.678 32.189C28.7187 32.0553 29.8814 32.179 31.8816 32.4817C33.8479 32.7792 34.8962 33.1547 36.7847 33.7015C39.1998 34.4008 42.8435 35.7829 42.8435 35.7829C42.8435 35.7829 43.921 42.3584 44.0776 46.6209C44.1947 49.8074 44.0578 51.6046 43.9109 54.7987C43.7525 58.2424 43.262 63.6131 43.262 63.6131C43.262 63.6131 43.0264 63.6588 42.4161 63.6688C41.8141 63.6786 41.2919 63.5613 41.2919 63.5613Z" fill="#36A534"/>
<path d="M8.90242 33.9035C7.87391 33.9294 6.31085 34.4069 6.31085 34.4069L26.1818 8.17504C26.1818 8.17504 26.1418 9.04824 26.3414 9.5559C26.4865 9.92529 26.634 10.1103 26.8868 10.4274C27.2711 10.9095 27.5501 11.1492 28.0852 11.4979C28.6126 11.8416 28.9771 11.9435 29.573 12.1864C30.1778 12.4329 30.5175 12.5785 31.1573 12.7476C31.6934 12.8892 32.5598 13.0182 32.5598 13.0182C32.5598 13.0182 33.662 15.1206 34.3668 16.4684C35.2325 18.1237 35.7344 19.0446 36.5801 20.7086C37.4617 22.4431 37.9525 23.4556 38.7706 25.1433L38.8788 25.3666C39.5545 26.7605 39.9699 27.528 40.5893 28.9441C41.2355 30.4214 41.6359 31.2422 42.1069 32.7764C42.3888 33.6944 42.7155 35.1561 42.7155 35.1561C42.7155 35.1561 40.7894 34.2846 39.5043 33.8249C38.696 33.5357 38.2335 33.3925 37.4061 33.1463C36.1112 32.761 35.3723 32.5734 34.0446 32.2787C32.9581 32.0375 32.3478 31.898 31.2397 31.7374L31.161 31.726C30.0494 31.5648 29.3958 31.4701 28.2418 31.4508C27.436 31.4373 26.9807 31.4551 26.1752 31.5263C25.2875 31.6049 24.7916 31.6898 23.9157 31.8566C22.2985 32.1645 21.4199 32.4702 19.8568 32.9707C18.7741 33.3174 18.1758 33.5367 17.115 33.9376C16.0887 34.3255 14.5123 34.9861 14.5123 34.9861C14.5123 34.9861 13.6441 34.6633 13.0672 34.5065C12.1955 34.2697 10.7761 34.0827 10.7761 34.0827C10.0496 33.9846 9.6416 33.8849 8.90242 33.9035Z" fill="#4B970F"/>
<path d="M44.333 34.0819C43.9348 34.4273 43.2831 34.9374 43.2831 34.9374C43.2831 34.9374 42.6292 32.0716 41.9695 30.3054C41.5678 29.23 41.2807 28.648 40.8044 27.5993C40.1102 26.0707 39.6679 25.2347 38.912 23.7312C37.9181 21.7543 37.3148 20.6658 36.2924 18.7012C35.1099 16.4287 33.2665 12.8812 33.2665 12.8812L33.9418 11.9898C34.2431 11.5919 34.435 11.3816 34.7134 10.9711C35.0286 10.5064 35.1881 10.2355 35.4424 9.74343L35.4655 9.69887C35.7989 9.05394 35.997 8.67092 36.1826 7.97062C36.3198 7.45268 36.4111 7.1529 36.3977 6.62558C36.385 6.12532 36.1417 5.37205 36.1417 5.37205L46.1595 11.246C46.1595 11.246 45.735 11.9014 45.5269 12.3463C45.339 12.748 45.2565 12.9821 45.13 13.4008C44.9976 13.8388 44.9014 14.0873 44.8721 14.5369C44.8421 14.9981 44.8671 15.2649 44.9891 15.7089C45.1016 16.1188 45.1957 16.3491 45.438 16.7077C45.8469 17.3128 46.2727 17.5297 46.9147 17.9414C47.5502 18.3489 47.9679 18.5 48.6808 18.7931C49.2847 19.0413 50.2651 19.3542 50.2651 19.3542C50.2651 19.3542 50.4545 20.1126 50.5212 20.6077C50.628 21.4013 50.5707 21.8584 50.5732 22.6611C50.5759 23.5122 50.6427 23.993 50.5288 24.8418C50.426 25.607 50.3455 26.0429 50.0669 26.7778C49.8062 27.4656 49.5607 27.8208 49.1876 28.4691C48.8184 29.1107 48.6229 29.4799 48.1693 30.0787C47.7156 30.6775 47.3845 30.9642 46.8726 31.5252C46.4454 31.9934 46.2147 32.2627 45.7688 32.717C45.2292 33.267 44.9206 33.5724 44.333 34.0819Z" fill="#86D72F"/>
<path d="M44.7293 63.0024C44.4899 63.1651 44.0652 63.3486 44.0652 63.3486C44.0652 63.3486 44.4558 59.512 44.6159 57.0512C44.7801 54.5287 44.8675 53.1125 44.8884 50.5906C44.9139 47.5089 44.9177 45.7738 44.6265 42.7133C44.3541 39.8501 43.5076 35.4368 43.5076 35.4368C43.5076 35.4368 44.6579 34.6743 45.3182 34.1078C46.149 33.3948 46.5114 32.9056 47.2363 32.1062C47.9151 31.3574 48.3274 30.9548 48.9188 30.1503C49.3997 29.496 49.6402 29.1108 50.0336 28.4133C50.371 27.8152 50.581 27.4826 50.8164 26.8494C51.0432 26.2395 51.1206 25.882 51.2245 25.2497C51.3022 24.7764 51.3124 24.5081 51.3432 24.032L51.3435 24.027C51.3845 23.3915 51.4077 23.0316 51.3765 22.3965C51.3539 21.9367 51.2596 21.2245 51.2596 21.2245C51.2596 21.2245 51.2127 20.507 51.1427 20.0526C51.0792 19.6412 50.9293 19.008 50.9293 19.008C50.9293 19.008 51.2613 18.4171 51.4654 18.035C51.641 17.7063 51.7617 17.5295 51.905 17.1894C52.054 16.8358 52.1119 16.6291 52.2055 16.2622C52.3378 15.7434 52.4206 14.9172 52.4206 14.9172L69.8126 25.115C69.8126 25.115 70.8739 26.1136 71.0427 26.9396C71.2114 27.7656 70.6235 29.0845 70.6235 29.0845L45.4472 62.3199C45.4472 62.3199 45.055 62.7811 44.7293 63.0024Z" fill="#C4E930"/>
</svg>
