<svg width="33" height="33" viewBox="0 0 33 33" fill="none" xmlns="http://www.w3.org/2000/svg">
<path d="M6.70798 20.5882H24.8046C29.4272 20.5882 33 17.2945 33 13.0499C33 8.76461 29.2668 5.55345 24.3234 5.59474C22.4571 2.03971 19.0304 0 14.9908 0C9.61038 0 5.07452 3.99625 4.65196 9.1368C1.82321 9.86704 0 12.1268 0 14.8277C0 18.2453 2.71265 20.5882 6.70798 20.5882ZM20.0072 25.9075H17.0025L18.4462 23.2885C18.6209 22.9995 18.4899 22.7653 18.169 22.7653H15.0051C14.5825 22.7653 14.4371 22.9028 14.3054 23.1924L12.3224 27.4647C12.162 27.8092 12.3224 28.0156 12.7013 28.0156H15.2385L13.2412 32.5769C13.1682 32.7698 13.1975 32.9214 13.3429 32.9768C13.474 33.0317 13.6344 32.9904 13.7948 32.8388L20.2407 26.5964C20.5465 26.2932 20.4298 25.9075 20.0072 25.9075Z" fill="#5A7C6B"/>
</svg>
