<svg width="41" height="29" viewBox="0 0 41 29" fill="none" xmlns="http://www.w3.org/2000/svg">
<path d="M13.498 17.5954C9.54767 17.5954 6.34535 14.8668 6.34535 11.5027C6.34535 8.13682 9.54767 5.40825 13.498 5.40825C17.4483 5.40825 20.6506 8.13682 20.6506 11.5027C20.6506 14.8668 17.4483 17.5954 13.498 17.5954ZM11.9595 18.7053H15.0386C15.181 18.7053 15.3127 18.765 15.3956 18.8646C15.4763 18.9624 15.4954 19.0909 15.4466 19.205L13.906 22.7574C13.8422 22.904 13.6807 23 13.498 23C13.3152 23 13.1537 22.9022 13.09 22.7574L11.5494 19.2032C11.5005 19.0891 11.5196 18.9624 11.6004 18.8628C11.6833 18.7632 11.8171 18.7053 11.9595 18.7053ZM20.5656 15.6671C20.6464 15.5965 20.759 15.5585 20.8716 15.5585C20.8971 15.5585 20.9226 15.5603 20.9481 15.5639C21.0884 15.5856 21.2052 15.6635 21.2668 15.7739L23.1283 19.2159C23.2048 19.3571 23.1687 19.5218 23.0412 19.6323C22.9116 19.7427 22.7161 19.7717 22.5503 19.7083L18.5129 18.1204C18.3833 18.0697 18.2919 17.9684 18.2664 17.8489C18.2409 17.7294 18.2876 17.608 18.3854 17.5211L20.5656 15.6671ZM26.711 11.8485L22.5376 13.1594C22.4037 13.2011 22.255 13.1848 22.1381 13.116C22.0212 13.0472 21.9532 12.9349 21.9532 12.8136L21.9553 10.19C21.9553 10.0687 22.0255 9.95466 22.1423 9.88585C22.2167 9.84421 22.3038 9.82067 22.391 9.82067C22.442 9.82067 22.493 9.82791 22.5418 9.84421L26.7153 11.1551C26.8853 11.2076 27 11.347 27 11.5045C26.9958 11.6566 26.8831 11.7942 26.711 11.8485ZM21.2668 7.2279C21.2375 7.28219 21.1932 7.32963 21.1377 7.3662C21.0822 7.40277 21.0172 7.42737 20.9481 7.43793C20.8079 7.45784 20.6634 7.41982 20.5656 7.33472L18.3875 5.47886C18.2876 5.39376 18.2409 5.27064 18.2664 5.15114C18.2919 5.03346 18.3833 4.93025 18.5129 4.87956L22.5525 3.29347C22.6098 3.26993 22.6714 3.26088 22.7352 3.26088C22.8478 3.26088 22.9583 3.2989 23.0412 3.36952C23.1708 3.47996 23.2048 3.64473 23.1283 3.78595L21.2668 7.2279ZM15.0365 4.29835L11.9574 4.29654C11.815 4.29654 11.6833 4.23679 11.6025 4.13721C11.5218 4.03763 11.5026 3.91089 11.5494 3.79863L13.09 0.242619C13.1537 0.0977709 13.3152 -6.30134e-07 13.498 -6.30134e-07C13.6807 -6.30134e-07 13.8422 0.0977709 13.906 0.242619L15.4466 3.79863C15.4954 3.9127 15.4763 4.03944 15.3956 4.13902C15.3127 4.2386 15.181 4.29835 15.0365 4.29835ZM6.43035 7.33472C6.33048 7.41982 6.18811 7.45784 6.04786 7.43793C5.90761 7.4162 5.78861 7.33834 5.72911 7.2279L3.86765 3.78595C3.79115 3.64473 3.82727 3.47815 3.95689 3.36952C4.0196 3.31594 4.10012 3.28009 4.18754 3.26681C4.27496 3.25353 4.36507 3.26347 4.44564 3.29528L8.48519 4.88318C8.54891 4.90819 8.60459 4.94594 8.64751 4.99323C8.69042 5.04051 8.7193 5.09593 8.73169 5.15476C8.75719 5.27426 8.71044 5.39557 8.61056 5.48067L6.43035 7.33472ZM4.60926 9.81886C4.69638 9.81886 4.7835 9.8424 4.85788 9.88585C4.97475 9.95466 5.04487 10.0687 5.04487 10.19L5.04275 12.8136C5.04276 12.8732 5.02588 12.9319 4.99353 12.9848C4.96118 13.0377 4.91433 13.0831 4.85696 13.1172C4.79959 13.1514 4.73339 13.1732 4.664 13.1809C4.5946 13.1885 4.52407 13.1818 4.45838 13.1612L0.284956 11.8485C0.201394 11.8224 0.129255 11.7751 0.0782918 11.7129C0.0273289 11.6507 0 11.5767 0 11.5009C0 11.4251 0.0273289 11.3511 0.0782918 11.2889C0.129255 11.2267 0.201394 11.1794 0.284956 11.1533L4.46051 9.8424C4.50938 9.8261 4.55826 9.81886 4.60926 9.81886ZM5.73124 15.7739C5.76067 15.7197 5.80503 15.6723 5.86057 15.6358C5.91611 15.5992 5.98117 15.5747 6.05023 15.5642C6.11928 15.5537 6.19029 15.5576 6.25721 15.5755C6.32413 15.5934 6.38499 15.6248 6.4346 15.6671L8.61056 17.5229C8.71044 17.6099 8.75506 17.7312 8.72956 17.8507C8.70406 17.9684 8.61269 18.0697 8.48307 18.1204L4.44139 19.7065C4.27564 19.7717 4.08227 19.7409 3.95264 19.6305C3.82302 19.52 3.78902 19.3553 3.86552 19.214L5.73124 15.7739Z" fill="#FCC21B"/>
<path d="M27.8232 6.5C31.6798 6.5 34.8525 9.71791 34.8525 13.667C34.8525 14.0099 34.8113 14.3135 34.7646 14.6221C34.7197 14.9198 34.6651 15.2496 34.665 15.583V16.0303L35.1084 16.0801C38.2295 16.4332 40.5 19.0816 40.5 22.292C40.4998 25.6658 37.7037 28.4998 34.4121 28.5H15.5879C12.2963 28.4998 9.50018 25.6658 9.5 22.292C9.5 19.1043 11.7525 16.6135 14.9189 16.0762L15.8633 15.916L15.1992 15.2402C15.1988 15.2386 15.18 15.2063 15.166 15.1064C15.1483 14.9801 15.1475 14.8257 15.1475 14.625C15.1475 12.2094 17.0021 10.3332 19.3525 10.333C19.8416 10.333 20.5169 10.5077 20.8203 10.6621L21.2588 10.8857L21.4893 10.4502C22.7315 8.10132 25.0198 6.50011 27.8232 6.5Z" fill="#B8E9F4" stroke="#006CA0"/>
</svg>
