<svg width="32" height="33" viewBox="0 0 32 33" fill="none" xmlns="http://www.w3.org/2000/svg">
<path d="M13.667 24.3936C13.7086 24.3996 13.7489 24.414 13.7861 24.4355C13.9586 24.5513 14.0136 24.7495 13.9014 24.9512L9.71875 32.3232L9.71387 32.332C9.62579 32.4945 9.4599 32.5468 9.28809 32.4541C9.13125 32.3539 9.06444 32.1857 9.12891 31.998L9.16504 31.915L13.3174 24.5771L13.3203 24.5713C13.3321 24.5499 13.3459 24.5299 13.3613 24.5117L13.4111 24.4629C13.4294 24.4484 13.4493 24.4361 13.4697 24.4258L13.5332 24.4014C13.5768 24.3896 13.6225 24.3871 13.667 24.3936ZM24.5488 24.5801C24.6853 24.3605 24.8928 24.3386 25.0312 24.4219C25.1921 24.5244 25.2499 24.6841 25.1846 24.8535L25.1494 24.9268L25.1445 24.9336L20.9756 32.3057C20.8717 32.486 20.6961 32.5306 20.5283 32.4395C20.3819 32.3445 20.3135 32.1809 20.3818 31.9863L20.4209 31.8994L24.5488 24.5801ZM7.89551 24.3955C7.94315 24.3818 8.00518 24.3789 8.08008 24.4062L8.15918 24.4443L8.16406 24.4473C8.31222 24.5328 8.38502 24.6909 8.31543 24.8789L8.27637 24.9609L8.27539 24.9629L6.4375 28.2031L6.43066 28.2148C6.41912 28.2365 6.40589 28.2569 6.39062 28.2754L6.34082 28.3252C6.3225 28.34 6.3027 28.3527 6.28223 28.3633L6.21875 28.3887C6.19697 28.3948 6.17471 28.3988 6.15234 28.4004L6.08398 28.3984C6.03931 28.3924 5.9957 28.3773 5.95605 28.3535L5.71875 28.749L5.95605 28.3525L5.94922 28.3486L5.8877 28.3057C5.77648 28.2113 5.73942 28.0726 5.78906 27.9336L5.82129 27.8643L5.82227 27.8613L7.6748 24.5918L7.67383 24.5908C7.74459 24.4672 7.82966 24.4145 7.89551 24.3955ZM19.1514 24.3809C19.1975 24.3675 19.255 24.3651 19.3232 24.3906L19.3955 24.4258L19.4053 24.4316C19.565 24.524 19.6345 24.6878 19.5684 24.8691L19.5322 24.9473L19.5312 24.9482L17.6934 28.1895L17.6465 28.2598L17.5947 28.3105C17.5759 28.3259 17.5562 28.3395 17.5352 28.3506L17.4707 28.377C17.426 28.3902 17.3791 28.3939 17.333 28.3887C17.2878 28.3835 17.2438 28.3691 17.2031 28.3467C17.0137 28.2306 16.9655 28.0307 17.0693 27.8389L17.0684 27.8379L18.9297 24.5791L18.9307 24.5781C19.0018 24.4534 19.0866 24.3997 19.1514 24.3809ZM14.5361 0.5C18.2499 0.5 21.405 2.52626 23.1367 6.08203L23.2744 6.36621L23.5908 6.36328C28.1392 6.32256 31.5 9.48597 31.5 13.6572C31.4998 17.7999 28.2622 21.0361 24.0527 21.0361H6.50488C4.67321 21.0361 3.17507 20.4581 2.13965 19.498C1.10729 18.5408 0.5 17.1721 0.5 15.5146C0.500044 12.8999 2.12013 10.7496 4.64551 10.0469L4.98242 9.95312L5.00977 9.60352C5.40113 4.47741 9.59316 0.500116 14.5361 0.5Z" fill="#B8E9F4" stroke="#199BC4"/>
</svg>
