<svg width="42" height="43" viewBox="0 0 42 43" fill="none" xmlns="http://www.w3.org/2000/svg">
<path d="M15.9976 7.51948C11.3158 7.51948 7.52042 11.3158 7.52042 15.9962C7.52042 20.6792 11.3158 24.4755 15.9976 24.4755C20.6795 24.4755 24.4748 20.6792 24.4748 15.9962C24.4748 11.3158 20.6795 7.51948 15.9976 7.51948ZM14.1742 5.97528H17.8235C17.9922 5.97528 18.1484 5.89215 18.2466 5.7536C18.3423 5.61757 18.365 5.43872 18.307 5.28001L16.4812 0.337558C16.4056 0.133512 16.2142 0 15.9976 0C15.781 0 15.5896 0.136031 15.5141 0.337558L13.6882 5.28253C13.6302 5.44123 13.6529 5.61757 13.7486 5.75612C13.8468 5.89467 14.0055 5.97528 14.1742 5.97528ZM24.3741 10.2023C24.4698 10.3006 24.6032 10.3535 24.7367 10.3535C24.7669 10.3535 24.7972 10.3509 24.8274 10.3459C24.9936 10.3157 25.1321 10.2074 25.2052 10.0537L27.4113 5.2649C27.502 5.06841 27.4592 4.83917 27.3081 4.68551C27.1545 4.53184 26.9228 4.49154 26.7263 4.57971L21.9412 6.78895C21.7876 6.85948 21.6793 7.00055 21.6491 7.16681C21.6188 7.33307 21.6742 7.50185 21.7901 7.62277L24.3741 10.2023ZM31.6575 15.5151L26.7112 13.6913C26.5525 13.6333 26.3762 13.656 26.2377 13.7517C26.0992 13.8474 26.0186 14.0036 26.0186 14.1724L26.0211 17.8226C26.0211 17.9913 26.1042 18.15 26.2428 18.2458C26.3309 18.3037 26.4342 18.3365 26.5374 18.3365C26.5979 18.3365 26.6583 18.3264 26.7162 18.3037L31.6625 16.4799C31.864 16.4068 32 16.2129 32 15.9937C31.995 15.7821 31.8615 15.5906 31.6575 15.5151ZM25.2052 21.9438C25.1704 21.8683 25.1178 21.8022 25.0521 21.7514C24.9863 21.7005 24.9092 21.6663 24.8274 21.6516C24.6612 21.6239 24.4899 21.6768 24.3741 21.7952L21.7926 24.3772C21.6742 24.4956 21.6188 24.6669 21.6491 24.8332C21.6793 24.9969 21.7876 25.1405 21.9412 25.2111L26.7288 27.4178C26.7968 27.4505 26.8699 27.4631 26.9454 27.4631C27.0789 27.4631 27.2099 27.4102 27.3081 27.312C27.4617 27.1583 27.502 26.9291 27.4113 26.7326L25.2052 21.9438ZM17.821 26.0197L14.1717 26.0222C14.003 26.0222 13.8468 26.1053 13.7511 26.2439C13.6554 26.3824 13.6328 26.5588 13.6882 26.7149L15.5141 31.6624C15.5896 31.864 15.781 32 15.9976 32C16.2142 32 16.4056 31.864 16.4812 31.6624L18.307 26.7149C18.365 26.5562 18.3423 26.3799 18.2466 26.2414C18.1484 26.1028 17.9922 26.0197 17.821 26.0197ZM7.62116 21.7952C7.50279 21.6768 7.33405 21.6239 7.16783 21.6516C7.00161 21.6818 6.86058 21.7901 6.79006 21.9438L4.58388 26.7326C4.49321 26.9291 4.53602 27.1608 4.68965 27.312C4.76397 27.3865 4.8594 27.4364 4.96301 27.4549C5.06662 27.4734 5.17341 27.4595 5.2689 27.4153L10.0565 25.206C10.132 25.1712 10.198 25.1187 10.2489 25.0529C10.2998 24.9871 10.334 24.91 10.3487 24.8282C10.3789 24.6619 10.3235 24.4931 10.2051 24.3747L7.62116 21.7952ZM5.46282 18.339C5.56608 18.339 5.66934 18.3062 5.75748 18.2458C5.896 18.15 5.97911 17.9913 5.97911 17.8226L5.97659 14.1724C5.97661 14.0894 5.9566 14.0077 5.91826 13.9342C5.87992 13.8606 5.8244 13.7974 5.7564 13.7499C5.6884 13.7024 5.60994 13.6721 5.5277 13.6614C5.44546 13.6508 5.36186 13.6601 5.28401 13.6887L0.337726 15.5151C0.238689 15.5514 0.153191 15.6173 0.0927903 15.7038C0.0323898 15.7903 0 15.8932 0 15.9987C0 16.1042 0.0323898 16.2072 0.0927903 16.2937C0.153191 16.3802 0.238689 16.4461 0.337726 16.4824L5.28653 18.3062C5.34445 18.3289 5.40238 18.339 5.46282 18.339ZM6.79258 10.0537C6.82746 10.1292 6.88004 10.1951 6.94586 10.2459C7.01168 10.2967 7.08879 10.3308 7.17064 10.3454C7.25248 10.36 7.33664 10.3546 7.41595 10.3297C7.49527 10.3048 7.56739 10.2611 7.62619 10.2023L10.2051 7.62025C10.3235 7.49933 10.3764 7.33055 10.3461 7.16429C10.3159 7.00055 10.2076 6.85948 10.054 6.78895L5.26386 4.58222C5.06742 4.49154 4.83824 4.53436 4.68461 4.68803C4.53099 4.84169 4.49069 5.07093 4.58136 5.26742L6.79258 10.0537Z" fill="#FCC21B"/>
<path d="M23.667 34.3936C23.7086 34.3996 23.7489 34.414 23.7861 34.4355C23.9586 34.5513 24.0136 34.7495 23.9014 34.9512L19.7188 42.3232L19.7139 42.332C19.6258 42.4945 19.4599 42.5468 19.2881 42.4541C19.1312 42.3539 19.0644 42.1857 19.1289 41.998L19.165 41.915L23.3174 34.5771L23.3203 34.5713C23.3321 34.5499 23.3459 34.5299 23.3613 34.5117L23.4111 34.4629C23.4294 34.4484 23.4493 34.4361 23.4697 34.4258L23.5332 34.4014C23.5768 34.3896 23.6225 34.3871 23.667 34.3936ZM34.5488 34.5801C34.6853 34.3605 34.8928 34.3386 35.0312 34.4219C35.1921 34.5244 35.2499 34.6841 35.1846 34.8535L35.1494 34.9268L35.1445 34.9336L30.9756 42.3057C30.8717 42.486 30.6961 42.5306 30.5283 42.4395C30.3819 42.3445 30.3135 42.1809 30.3818 41.9863L30.4209 41.8994L34.5488 34.5801ZM17.8955 34.3955C17.9431 34.3818 18.0052 34.3789 18.0801 34.4062L18.1592 34.4443L18.1641 34.4473C18.3122 34.5328 18.385 34.6909 18.3154 34.8789L18.2764 34.9609L18.2754 34.9629L16.4375 38.2031L16.4307 38.2148C16.4191 38.2365 16.4059 38.2569 16.3906 38.2754L16.3408 38.3252C16.3225 38.34 16.3027 38.3527 16.2822 38.3633L16.2188 38.3887C16.197 38.3948 16.1747 38.3988 16.1523 38.4004L16.084 38.3984C16.0393 38.3924 15.9957 38.3773 15.9561 38.3535L15.7188 38.749L15.9561 38.3525L15.9492 38.3486L15.8877 38.3057C15.7765 38.2113 15.7394 38.0726 15.7891 37.9336L15.8213 37.8643L15.8223 37.8613L17.6748 34.5918L17.6738 34.5908C17.7446 34.4672 17.8297 34.4145 17.8955 34.3955ZM29.1514 34.3809C29.1975 34.3675 29.255 34.3651 29.3232 34.3906L29.3955 34.4258L29.4053 34.4316C29.565 34.524 29.6345 34.6878 29.5684 34.8691L29.5322 34.9473L29.5312 34.9482L27.6934 38.1895L27.6465 38.2598L27.5947 38.3105C27.5759 38.3259 27.5562 38.3395 27.5352 38.3506L27.4707 38.377C27.426 38.3902 27.3791 38.3939 27.333 38.3887C27.2878 38.3835 27.2438 38.3691 27.2031 38.3467C27.0137 38.2306 26.9655 38.0307 27.0693 37.8389L27.0684 37.8379L28.9297 34.5791L28.9307 34.5781C29.0018 34.4534 29.0866 34.3997 29.1514 34.3809ZM24.5361 10.5C28.2499 10.5 31.405 12.5263 33.1367 16.082L33.2744 16.3662L33.5908 16.3633C38.1392 16.3226 41.5 19.486 41.5 23.6572C41.4998 27.7999 38.2622 31.0361 34.0527 31.0361H16.5049C14.6732 31.0361 13.1751 30.4581 12.1396 29.498C11.1073 28.5408 10.5 27.1721 10.5 25.5146C10.5 22.8999 12.1201 20.7496 14.6455 20.0469L14.9824 19.9531L15.0098 19.6035C15.4011 14.4774 19.5932 10.5001 24.5361 10.5Z" fill="#B8E9F4" stroke="#199BC4"/>
</svg>
