<svg width="22" height="22" viewBox="0 0 22 22" fill="none" xmlns="http://www.w3.org/2000/svg">
<path d="M3.07346 19.2971C3.6137 19.7503 4.29631 19.9987 5.00146 19.9987C5.7066 19.9987 6.38921 19.7503 6.92946 19.2971C7.46977 18.8438 7.83309 18.2146 7.95562 17.5201C8.07815 16.8255 7.95204 16.11 7.59946 15.4991L5.50446 12.2721C5.44993 12.1886 5.37543 12.1199 5.28769 12.0724C5.19995 12.0249 5.10174 12 5.00196 12C4.90218 12 4.80397 12.0249 4.71623 12.0724C4.62849 12.1199 4.55398 12.1886 4.49946 12.2721L2.40146 15.4991C2.04899 16.1101 1.92305 16.8257 2.04576 17.5203C2.16847 18.2148 2.53298 18.844 3.07346 19.2971ZM15.0735 19.2971C15.6137 19.7503 16.2963 19.9987 17.0015 19.9987C17.7066 19.9987 18.3892 19.7503 18.9295 19.2971C19.4698 18.8438 19.8331 18.2146 19.9556 17.5201C20.0781 16.8255 19.952 16.11 19.5995 15.4991L17.5045 12.2721C17.4499 12.1886 17.3754 12.1199 17.2877 12.0724C17.1999 12.0249 17.1017 12 17.002 12C16.9022 12 16.804 12.0249 16.7162 12.0724C16.6285 12.1199 16.554 12.1886 16.4995 12.2721L14.4015 15.4991C14.049 16.1101 13.923 16.8257 14.0458 17.5203C14.1685 18.2148 14.532 18.844 15.0725 19.2971H15.0735ZM9.07346 9.29714C9.6137 9.75031 10.2963 9.9987 11.0015 9.9987C11.7066 9.9987 12.3892 9.75031 12.9295 9.29714C13.4698 8.84382 13.8331 8.21463 13.9556 7.52006C14.0781 6.8255 13.952 6.10997 13.5995 5.49914L11.5045 2.27214C11.4499 2.18857 11.3754 2.11992 11.2877 2.0724C11.1999 2.02489 11.1017 2 11.002 2C10.9022 2 10.804 2.02489 10.7162 2.0724C10.6285 2.11992 10.554 2.18857 10.4995 2.27214L8.40146 5.49914C8.04899 6.11008 7.92305 6.82568 8.04576 7.52025C8.16847 8.21483 8.53298 8.84395 9.07346 9.29714Z" stroke="#81D8EB" stroke-width="3" stroke-linecap="round" stroke-linejoin="round"/>
</svg>
