<svg width="35" height="35" viewBox="0 0 35 35" fill="none" xmlns="http://www.w3.org/2000/svg">
<path d="M11.2948 28.4375H23.6921C23.9692 28.4376 24.236 28.5429 24.4384 28.7321C24.6409 28.9213 24.7641 29.1803 24.783 29.4567C24.8018 29.7332 24.7151 30.0065 24.5402 30.2215C24.3653 30.4365 24.1154 30.577 23.8408 30.6148L23.6921 30.625H11.2948C11.0177 30.6249 10.7509 30.5197 10.5484 30.3305C10.3459 30.1413 10.2228 29.8823 10.2039 29.6058C10.185 29.3294 10.2718 29.056 10.4467 28.841C10.6216 28.6261 10.8715 28.4855 11.146 28.4477L11.2948 28.4375ZM6.92708 24.0917H28.0729C28.3483 24.0943 28.6126 24.2006 28.813 24.3896C29.0133 24.5785 29.1351 24.836 29.1539 25.1108C29.1727 25.3856 29.0871 25.6573 28.9143 25.8717C28.7415 26.0861 28.4941 26.2275 28.2217 26.2675L28.0729 26.2777H6.92708C6.64997 26.2776 6.38321 26.1724 6.18072 25.9832C5.97823 25.794 5.8551 25.535 5.83621 25.2585C5.81732 24.9821 5.90409 24.7087 6.07896 24.4938C6.25384 24.2788 6.5038 24.1382 6.77833 24.1004L6.92708 24.0917ZM17.5 4.38086C22.1215 4.38086 24.7421 7.43898 25.1227 11.1329H25.2394C25.9458 11.1318 26.6456 11.2699 27.2987 11.5393C27.9518 11.8087 28.5454 12.2042 29.0455 12.7032C29.5457 13.2021 29.9426 13.7947 30.2136 14.4471C30.4846 15.0995 30.6244 15.799 30.625 16.5054C30.624 17.2117 30.484 17.9108 30.2128 18.5629C29.9416 19.2149 29.5446 19.8072 29.0445 20.3059C28.5444 20.8045 27.9509 21.1997 27.298 21.4689C26.6451 21.7382 25.9456 21.8762 25.2394 21.875H9.76062C9.0544 21.8762 8.35487 21.7382 7.70198 21.4689C7.04909 21.1997 6.45564 20.8045 5.95552 20.3059C5.4554 19.8072 5.05841 19.2149 4.78722 18.5629C4.51603 17.9108 4.37596 17.2117 4.375 16.5054C4.37577 15.7991 4.5157 15.0998 4.7868 14.4476C5.0579 13.7953 5.45487 13.2029 5.95501 12.7041C6.45515 12.2053 7.04866 11.81 7.70164 11.5406C8.35463 11.2713 9.05428 11.1333 9.76062 11.1344H9.87729C10.2594 7.41565 12.8785 4.38232 17.5 4.38232" fill="#344E41"/>
</svg>
