<svg width="35" height="35" viewBox="0 0 35 35" fill="none" xmlns="http://www.w3.org/2000/svg">
<g clip-path="url(#clip0_2189_526)">
<path d="M26.6875 13.1255H18.375V16.9536C18.375 19.6675 16.6086 21.8755 14.4375 21.8755C12.2664 21.8755 10.5 19.6675 10.5 16.9536V8.6411L6.95081 11.3071C5.89534 12.0932 5.25003 13.522 5.25003 15.0532V18.2866L0.875027 21.4448C0.0383079 22.0464 -0.251536 23.3862 0.235183 24.4321L4.61018 33.9067C5.09143 34.9526 6.16331 35.3081 7.00003 34.7065L12.6547 30.6255H20.125C22.0555 30.6255 23.625 28.6636 23.625 26.2505H24.5C25.468 26.2505 26.25 25.2729 26.25 24.063V19.688H26.6875C27.4149 19.688 28 18.9565 28 18.0473V14.7661C28 13.8569 27.4149 13.1255 26.6875 13.1255ZM34.7649 10.5688L30.3899 1.09422C29.9086 0.0483259 28.8367 -0.307143 28 0.29442L22.3453 4.37547H16.7563C16.1 4.37547 15.4602 4.6079 14.9024 5.03856L13.0703 6.46727C12.5563 6.86376 12.25 7.56786 12.25 8.31981V16.9536C12.25 18.4643 13.2289 19.688 14.4375 19.688C15.6461 19.688 16.625 18.4643 16.625 16.9536V10.938H26.6875C28.3774 10.938 29.75 12.6538 29.75 14.7661V16.7143L34.125 13.5561C34.9618 12.9477 35.2461 11.6147 34.7649 10.5688Z" fill="#344E41"/>
</g>
<defs>
<clipPath id="clip0_2189_526">
<rect width="35" height="35" fill="white"/>
</clipPath>
</defs>
</svg>
